<svg width="80" height="81" viewBox="0 0 80 81" fill="none" xmlns="http://www.w3.org/2000/svg">
<path d="M0 11.4097C0 5.13114 5.08982 0.0413208 11.3684 0.0413208H68.6316C74.9102 0.0413208 80 5.13114 80 11.4097V68.6729C80 74.9515 74.9102 80.0413 68.6316 80.0413H11.3684C5.08982 80.0413 0 74.9515 0 68.6729V11.4097Z" fill="#F7F7F7"/>
<g clip-path="url(#clip0)">
<path d="M18.016 37.6189C18.016 49.6239 27.7834 59.3914 39.7885 59.3914C51.7935 59.3914 61.5625 49.6239 61.5625 37.6189C61.5625 25.6124 51.7935 15.8449 39.7885 15.8449C27.7834 15.8449 18.016 25.6153 18.016 37.6189Z" fill="#46A9D4"/>
<path d="M39.7878 60.8005C37.135 60.8005 34.8662 62.439 33.9217 64.7582C24.7859 63.1953 17.7469 55.4919 17.1612 46.0937C17.3139 45.8624 17.4622 45.6236 17.5556 45.3463C17.6713 45.0038 17.7306 44.6405 17.7306 44.2772V31.3691C17.7306 29.5289 16.2329 28.0313 14.3927 28.0313C14.3126 28.0313 14.234 28.0446 14.1554 28.0505C13.6587 27.6413 13.03 27.3847 12.336 27.3847C10.7494 27.3847 9.45782 28.6748 9.45782 30.2614C9.45782 30.3623 9.47709 30.4587 9.48747 30.5565C7.81187 32.1847 6.75757 34.3244 6.49066 36.6762C6.18371 39.3705 6.94589 42.0218 8.63336 44.1452C9.73511 45.5287 11.1779 46.5712 12.809 47.2236C13.9093 58.5169 22.6506 67.623 33.8327 69.226C34.7016 71.6904 37.0297 73.4743 39.7893 73.4743C43.2828 73.4743 46.1269 70.6302 46.1269 67.1367C46.1269 63.6446 43.2828 60.8005 39.7878 60.8005Z" fill="#46A9D4"/>
<path d="M64.9561 26.5638C65.6456 26.1353 66.4389 25.9025 67.2412 25.9025C67.597 25.9025 67.9366 25.9588 68.2673 26.0389C62.8282 11.3203 46.8655 2.99266 31.5122 7.33589C22.1985 9.97238 14.6419 17.0366 11.2937 26.0434C11.6303 25.9603 11.9758 25.9025 12.3376 25.9025C13.1472 25.9025 13.9213 26.1264 14.6078 26.5535C15.0171 26.5727 15.4071 26.6558 15.7837 26.7714C18.785 19.47 25.0559 13.7848 32.7252 11.6139C45.5517 7.98538 58.8824 14.71 63.801 26.77C64.1702 26.6602 64.5557 26.5816 64.9561 26.5638Z" fill="#46A9D4"/>
<path d="M70.0882 30.5846C70.1 30.4793 70.1193 30.3725 70.1193 30.2628C70.1193 28.6762 68.8278 27.3861 67.2411 27.3861C66.5472 27.3861 65.9169 27.6426 65.4202 28.0534C64.833 28.0119 64.2458 28.1112 63.7046 28.3781C62.9053 28.7755 62.3092 29.4576 62.0215 30.3043C61.9059 30.6484 61.8466 31.0087 61.8466 31.372V44.2816C61.8466 46.1218 63.3457 47.6209 65.1844 47.6209C65.5492 47.6209 65.9095 47.5601 66.2565 47.4445C71.5577 45.6487 74.4121 39.876 72.6194 34.5749C72.1019 33.0491 71.2255 31.6997 70.0882 30.5846Z" fill="#46A9D4"/>
</g>
<defs>
<clipPath id="clip0">
<rect width="68.2105" height="68.2105" fill="white" transform="translate(5.68451 5.72568)"/>
</clipPath>
</defs>
</svg>


