<svg width="80" height="81" viewBox="0 0 80 81" fill="none" xmlns="http://www.w3.org/2000/svg">
<path d="M0 11.4097C0 5.13114 5.08982 0.0413208 11.3684 0.0413208H68.6316C74.9102 0.0413208 80 5.13114 80 11.4097V68.6729C80 74.9515 74.9102 80.0413 68.6316 80.0413H11.3684C5.08982 80.0413 0 74.9515 0 68.6729V11.4097Z" fill="#F7F7F7"/>
<g clip-path="url(#clip0)">
<path fill-rule="evenodd" clip-rule="evenodd" d="M20.7291 61.2869H64.1358C65.1223 61.2869 65.6156 61.7801 66.1088 62.0268C64.6291 62.52 63.6425 63.7532 63.1493 65.2329H21.7156C21.2224 63.7532 20.2358 62.52 18.7561 62.0268C19.2493 61.7801 19.7426 61.2869 20.7291 61.2869ZM12.5903 36.1307V33.1712H13.3302V30.2116L6.17799 19.8532C5.19147 18.6201 7.1645 17.1403 8.15102 18.6201L15.3033 28.9785C15.5499 29.2251 15.5499 29.4717 15.5499 29.7184V33.1712H16.2898V36.1307H15.5499V50.4352H16.2898V57.0942H71.5347C74.001 57.0942 74.001 60.7936 71.5347 60.7936H13.3302C11.1106 60.7936 10.8639 57.8341 12.5903 57.0942V50.4352H13.3302V36.1307H12.5903ZM17.7695 62.52C19.496 62.52 21.2224 64.2464 21.2224 65.9728C21.2224 67.9459 19.496 69.6723 17.7695 69.6723C15.7965 69.6723 14.0701 67.9459 14.0701 65.9728C14.0701 64.2464 15.7965 62.52 17.7695 62.52ZM67.342 62.52C69.0684 62.52 70.7948 64.2464 70.7948 65.9728C70.7948 67.9459 69.0684 69.6723 67.342 69.6723C65.3689 69.6723 63.6425 67.9459 63.6425 65.9728C63.6425 64.2464 65.3689 62.52 67.342 62.52Z" fill="#46A9D4"/>
<path d="M44.8575 40.8167H19.9892V56.2308H44.8575V40.8167Z" fill="#46A9D4"/>
<path d="M66.149 40.8167H47.8579V56.2308H66.149V40.8167Z" fill="#46A9D4"/>
<path d="M56.5305 24.7862H38.2394V40.2003H56.5305V24.7862Z" fill="#46A9D4"/>
<path d="M37.5406 29.4726H19.2495V40.3649H37.5406V29.4726Z" fill="#46A9D4"/>
<path d="M35.6491 17.8814H22.7022V28.7737H35.6491V17.8814Z" fill="#46A9D4"/>
<path d="M35.5325 10.2345L49.5121 19.2733L46.2762 24.2781L32.2966 15.2393L35.5325 10.2345Z" fill="#46A9D4"/>
<path d="M57.8466 18.8667H49.8313V24.3129H57.8466V18.8667Z" fill="#46A9D4"/>
</g>
<defs>
<clipPath id="clip0">
<rect width="67.823" height="59.6842" fill="white" transform="translate(5.68439 9.98885)"/>
</clipPath>
</defs>
</svg>

