<svg width="80" height="81" viewBox="0 0 80 81" fill="none" xmlns="http://www.w3.org/2000/svg">
<path d="M0 11.4097C0 5.13114 5.08982 0.0413208 11.3684 0.0413208H68.6316C74.9102 0.0413208 80 5.13114 80 11.4097V68.6729C80 74.9515 74.9102 80.0413 68.6316 80.0413H11.3684C5.08982 80.0413 0 74.9515 0 68.6729V11.4097Z" fill="#F7F7F7"/>
<g clip-path="url(#clip0)">
<path fill-rule="evenodd" clip-rule="evenodd" d="M16.7511 40.9695H29.6253C30.5287 40.9695 31.4322 41.8729 31.4322 43.0022V49.3264C31.4322 50.4557 30.5287 51.3592 29.6253 51.3592H16.7511C15.6218 51.3592 14.7183 50.4557 14.7183 49.3264V43.0022C14.7183 41.8729 15.6218 40.9695 16.7511 40.9695ZM48.146 18.3832L41.8219 24.4815C41.596 24.7074 41.596 24.9332 41.8219 25.1591L42.9512 26.5143L38.8857 26.966L36.1753 29.6763L43.177 36.9039L45.8874 34.4195L46.565 30.3539L47.0167 30.8057C47.4684 31.4832 48.3719 31.4832 49.0495 30.8057L49.2753 30.5798L55.8254 37.5815L56.2771 40.066L67.5702 52.2626L73.8944 46.3902L62.3754 34.1936L59.8909 33.7419L53.3409 26.7401L54.2443 26.0625C54.696 25.6108 54.696 25.1591 54.2443 24.7074L51.7598 21.997C52.4374 19.0608 53.5667 17.028 56.9547 15.8987C51.9857 15.6729 51.0822 15.8987 48.146 18.3832ZM61.0202 37.5815L69.1513 46.3902L68.0219 47.5195L59.665 38.7109L61.0202 37.5815ZM7.49074 53.8437H20.3649C21.4942 53.8437 22.3977 54.7471 22.3977 55.8764V62.2006C22.3977 63.3299 21.4942 64.2333 20.3649 64.2333H7.49074C6.36143 64.2333 5.68384 63.3299 5.68384 62.2006V55.8764C5.68384 54.7471 6.36143 53.8437 7.49074 53.8437ZM36.4012 40.9695H49.2753C50.4047 40.9695 51.0822 41.8729 51.0822 43.0022V49.3264C51.0822 50.4557 50.4047 51.3592 49.2753 51.3592H36.4012C35.2718 51.3592 34.3684 50.4557 34.3684 49.3264V43.0022C34.3684 41.8729 35.2718 40.9695 36.4012 40.9695ZM27.1408 53.8437H40.015C41.1443 53.8437 42.0477 54.7471 42.0477 55.8764V62.2006C42.0477 63.3299 41.1443 64.2333 40.015 64.2333H27.1408C26.2373 64.2333 25.3339 63.3299 25.3339 62.2006V55.8764C25.3339 54.7471 26.2373 53.8437 27.1408 53.8437Z" fill="#46A9D4"/>
</g>
<defs>
<clipPath id="clip0">
<rect width="68.2105" height="48.5605" fill="white" transform="translate(5.6842 15.6731)"/>
</clipPath>
</defs>
</svg>

