<svg width="80" height="81" viewBox="0 0 80 81" fill="none" xmlns="http://www.w3.org/2000/svg">
<path d="M0 11.4097C0 5.13114 5.08982 0.0413208 11.3684 0.0413208H68.6316C74.9102 0.0413208 80 5.13114 80 11.4097V68.6729C80 74.9515 74.9102 80.0413 68.6316 80.0413H11.3684C5.08982 80.0413 0 74.9515 0 68.6729V11.4097Z" fill="#F7F7F7"/>
<g clip-path="url(#clip0)">
<path d="M23.6268 22.7991C24.4587 21.8666 24.8982 20.6488 24.8533 19.3999C24.8085 18.1511 24.2827 16.9679 23.386 16.0976L20.0904 12.802C19.8616 12.5711 19.706 12.2777 19.6434 11.9587C19.5807 11.6397 19.6137 11.3093 19.7381 11.009C19.8626 10.7087 20.073 10.4518 20.3429 10.2706C20.6129 10.0895 20.9303 9.99214 21.2554 9.9908C23.0039 9.95571 24.7348 10.3445 26.3003 11.124C27.8658 11.9035 29.2192 13.0505 30.2449 14.467C31.2706 15.8834 31.938 17.5271 32.1902 19.2577C32.4423 20.9882 32.2717 22.754 31.6928 24.4043L40.497 33.2085L36.354 37.3516L34.857 35.8543C34.1947 35.1927 33.2968 34.8212 32.3606 34.8214C31.4245 34.8217 30.5267 35.1936 29.8648 35.8556L29.8385 35.8819L25.0335 31.0768C23.375 31.6579 21.6002 31.8271 19.8618 31.5697C18.1235 31.3123 16.4738 30.6361 15.0549 29.5993C13.636 28.5625 12.4906 27.1963 11.7172 25.6183C10.9438 24.0403 10.5658 22.298 10.6156 20.5414C10.6313 20.2231 10.7392 19.9163 10.9263 19.6583C11.1133 19.4003 11.3713 19.2023 11.6689 19.0884C11.9665 18.9744 12.2908 18.9495 12.6023 19.0167C12.9138 19.0839 13.1991 19.2402 13.4233 19.4666L16.8599 22.9032C17.3062 23.3495 17.8376 23.7016 18.4226 23.9387C19.0076 24.1757 19.6342 24.2929 20.2654 24.2832C20.8965 24.2735 21.5192 24.1371 22.0966 23.8822C22.6741 23.6272 23.1944 23.2589 23.6268 22.7991ZM70.0511 62.484C69.7183 63.7309 69.143 64.8999 68.3582 65.9243C67.5733 66.9487 66.5942 67.8084 65.4769 68.4542C64.3596 69.1 63.126 69.5193 61.8466 69.688C60.5671 69.8568 59.267 69.7717 58.0205 69.4377C56.7739 69.1037 55.6054 68.5273 54.5818 67.7414C53.5581 66.9556 52.6994 65.9757 52.0547 64.8578C51.41 63.7398 50.9919 62.5058 50.8244 61.2262C50.6569 59.9466 50.7432 58.6465 51.0784 57.4003C51.0977 57.3283 51.1256 57.261 51.1464 57.1898L44.4929 50.5362L44.5192 50.5099C45.18 49.8471 45.5512 48.9492 45.5512 48.0132C45.5512 47.0771 45.18 46.1793 44.5192 45.5164L43.0229 44.0204L47.166 39.8774L57.8134 50.5249C59.4854 50.0326 61.2585 49.9948 62.9499 50.4155C64.6414 50.8362 66.1901 51.7001 67.4367 52.9184C68.6833 54.1366 69.5827 55.665 70.0422 57.3464C70.5017 59.0277 70.5048 60.8011 70.0511 62.484H70.0511ZM67.4744 58.0907L62.4162 53.0325L55.5066 54.884L53.6551 61.7936L58.7133 66.8518L65.623 65.0004L67.4744 58.0907ZM70.1911 11.9414C70.2973 12.0476 70.3644 12.1867 70.3814 12.3359C70.3985 12.4851 70.3645 12.6357 70.2849 12.7631L64.4945 22.0436C64.4425 22.1268 64.374 22.1983 64.293 22.2536C64.212 22.3089 64.1205 22.3469 64.0241 22.365L60.6646 22.9973L39.6413 44.0205L42.828 47.2072C42.9339 47.3131 43.0179 47.4388 43.0752 47.5771C43.1325 47.7154 43.162 47.8637 43.162 48.0134C43.162 48.1631 43.1325 48.3114 43.0752 48.4497C43.0179 48.588 42.9339 48.7137 42.828 48.8195L41.6737 49.9739C41.527 50.1129 41.3384 50.1994 41.1373 50.2197C40.9362 50.2401 40.734 50.1931 40.5624 50.0863C40.0565 49.7992 39.4704 49.686 38.8939 49.7641C38.3175 49.8422 37.7826 50.1073 37.3713 50.5186C36.96 50.9299 36.6949 51.4648 36.6168 52.0412C36.5387 52.6176 36.6519 53.2038 36.9389 53.7097C37.0458 53.8813 37.0928 54.0834 37.0724 54.2845C37.0521 54.4856 36.9656 54.6743 36.8266 54.821L24.2192 67.4283C23.4792 68.1695 22.6004 68.7576 21.633 69.159C20.6657 69.5604 19.6287 69.7672 18.5813 69.7676C17.534 69.768 16.4968 69.562 15.5291 69.1614C14.5614 68.7608 13.6821 68.1734 12.9416 67.4328C12.201 66.6922 11.6136 65.8129 11.213 64.8452C10.8124 63.8775 10.6064 62.8404 10.6068 61.793C10.6072 60.7457 10.814 59.7087 11.2154 58.7413C11.6168 57.7739 12.2049 56.8951 12.9461 56.1551L25.5534 43.5478C25.7001 43.4088 25.8888 43.3223 26.0899 43.302C26.291 43.2816 26.4931 43.3286 26.6647 43.4355C27.1706 43.7225 27.7568 43.8357 28.3332 43.7576C28.9096 43.6795 29.4445 43.4144 29.8558 43.0031C30.2671 42.5918 30.5322 42.0569 30.6103 41.4805C30.6884 40.9041 30.5752 40.318 30.2882 39.812C30.1813 39.6405 30.1344 39.4383 30.1547 39.2372C30.175 39.0361 30.2615 38.8474 30.4006 38.7007L31.5548 37.5464C31.7686 37.3326 32.0586 37.2125 32.361 37.2125C32.6634 37.2124 32.9534 37.3325 33.1672 37.5463L36.354 40.733L57.3771 19.7099L58.0094 16.3503C58.0275 16.2539 58.0655 16.1624 58.1208 16.0814C58.1761 16.0004 58.2476 15.9319 58.3308 15.88L67.6113 10.0894C67.7387 10.0099 67.8893 9.97594 68.0385 9.99299C68.1877 10.01 68.3268 10.0771 68.433 10.1833L69.312 11.0624L70.1911 11.9414ZM14.4914 64.0047L28.9328 49.5633L26.5837 47.2143L15.2941 58.5035C14.586 59.2119 14.1255 60.1299 13.9808 61.121C13.8362 62.1121 14.0153 63.1235 14.4914 64.0047ZM33.1606 53.7912L30.8111 51.4417L16.3697 65.8831C17.251 66.3592 18.2624 66.5382 19.2537 66.3936C20.2449 66.2489 21.163 65.7884 21.8715 65.0803L33.1606 53.7912Z" fill="#46A9D4"/>
</g>
<defs>
<clipPath id="clip0">
<rect width="61.1053" height="60.4411" fill="white" transform="translate(9.94745 9.98885)"/>
</clipPath>
</defs>
</svg>

