<svg width="80" height="81" viewBox="0 0 80 81" fill="none" xmlns="http://www.w3.org/2000/svg">
<path d="M0 11.4097C0 5.13114 5.08982 0.0413208 11.3684 0.0413208H68.6316C74.9102 0.0413208 80 5.13114 80 11.4097V68.6729C80 74.9515 74.9102 80.0413 68.6316 80.0413H11.3684C5.08982 80.0413 0 74.9515 0 68.6729V11.4097Z" fill="#F7F7F7"/>
<g clip-path="url(#clip0)">
<path d="M68.0301 14.8208C67.9926 13.6387 67.024 12.6994 65.8419 12.6994C49.3786 12.6994 41.5023 6.30058 41.4328 6.24328C40.6217 5.55367 39.4246 5.55504 38.6068 6.23578C38.529 6.30058 30.6528 12.6994 14.1895 12.6994C13.0074 12.6994 12.0388 13.6387 12.0013 14.8208C11.9399 16.8146 10.8124 63.7591 39.2875 73.8106C39.5229 73.8938 39.7698 73.9361 40.016 73.9361C40.2623 73.9361 40.5092 73.8938 40.7445 73.8106C69.2197 63.7591 68.0915 16.8146 68.0301 14.8208ZM52.7359 50.6265C52.7359 52.4764 51.2367 53.9763 49.3861 53.9763H30.6459C28.7961 53.9763 27.2954 52.4764 27.2954 50.6265V37.4694C27.2954 35.685 28.691 34.2314 30.4495 34.1291V28.8476C30.4495 23.5728 34.7413 19.2817 40.016 19.2817C45.2907 19.2817 49.5826 23.5728 49.5826 28.8476V34.1291C51.341 34.2314 52.7359 35.685 52.7359 37.4694V50.6265Z" fill="#46A9D4"/>
<path d="M41.8591 44.2016C42.5255 43.6532 42.9245 42.8285 42.9245 41.9547C42.9245 40.3504 41.6196 39.0456 40.016 39.0456C38.4124 39.0456 37.1082 40.3504 37.1082 41.9547C37.1082 42.8285 37.5072 43.6532 38.1736 44.2016L36.9077 47.2042C36.8388 47.3672 36.8565 47.5548 36.954 47.7022C37.0529 47.8502 37.218 47.9395 37.3954 47.9395H42.636C42.8133 47.9395 42.9784 47.8502 43.0766 47.7022C43.1748 47.5541 43.1926 47.3672 43.123 47.2042L41.8591 44.2016Z" fill="#46A9D4"/>
<path d="M40.0164 24.0274C37.3589 24.0274 35.1967 26.1896 35.1967 28.8471V34.1191H44.8375V28.8471C44.8369 26.1896 42.6739 24.0274 40.0164 24.0274Z" fill="#46A9D4"/>
</g>
<defs>
<clipPath id="clip0">
<rect width="57.2968" height="68.2105" fill="white" transform="translate(11.368 5.72552)"/>
</clipPath>
</defs>
</svg>

