<svg width="80" height="81" viewBox="0 0 80 81" fill="none" xmlns="http://www.w3.org/2000/svg">
<path d="M0 11.4097C0 5.13114 5.08982 0.0413208 11.3684 0.0413208H68.6316C74.9102 0.0413208 80 5.13114 80 11.4097V68.6729C80 74.9515 74.9102 80.0413 68.6316 80.0413H11.3684C5.08982 80.0413 0 74.9515 0 68.6729V11.4097Z" fill="#F7F7F7"/>
<g clip-path="url(#clip0)">
<path fill-rule="evenodd" clip-rule="evenodd" d="M65.342 20.9048C65.342 20.9048 65.342 28.4874 65.342 30.7601C65.342 33.0328 63.8846 33.4993 61.6699 33.4993H60.8861V36.9708C60.8861 39.6245 56.8482 39.6245 56.8482 36.9708V33.4993H53.6265L48.5453 29.7112V14.2921H60.4083C65.2784 14.2921 65.342 18.5257 65.342 20.9048ZM46.267 28.8943H39.639C37.9496 28.8943 37.3027 29.5895 37.3027 31.1049C37.3027 32.6252 37.3027 37.807 37.3027 40.663C37.3027 43.5238 40.8306 48.7169 42.9872 48.7169C45.1439 48.7169 54.1727 48.7169 54.1727 48.7169C54.1727 48.7169 63.8581 49.4477 64.277 56.8063H15.1976C16.6977 43.7832 19.4313 20.1845 19.818 17.5936C20.3481 13.9908 23.685 14.2921 23.685 14.2921H46.267V28.8943ZM64.2931 59.4351V65.3477H14.2123L14.8899 59.4351H64.2931Z" fill="#46A9D4"/>
</g>
<defs>
<clipPath id="clip0">
<rect width="51.1579" height="51.1579" fill="white" transform="translate(14.2109 14.2518)"/>
</clipPath>
</defs>
</svg>

